<svg width="97" height="98" viewBox="0 0 97 98" fill="none" xmlns="http://www.w3.org/2000/svg">
<path d="M94.7 51.11C90.39 43.27 80.7 43.04 73.7 43.55C73.3385 42.66 72.8538 41.8252 72.26 41.07C70.26 38.54 67.26 36.76 63.26 35.79C61.0133 35.2333 58.7044 34.9678 56.39 35C58.1158 32.4919 58.8792 29.4455 58.54 26.42C58.305 24.9209 57.7582 23.4877 56.9348 22.213C56.1115 20.9384 55.0299 19.8506 53.76 19.02C52.1982 17.9476 50.4334 17.2063 48.5743 16.8417C46.7152 16.4771 44.8012 16.4969 42.95 16.9C37.68 18.11 32.95 22.19 29.54 28.38C23.26 39.88 23.4 53.52 24.26 64.13C24.2838 64.5134 24.3846 64.8882 24.5565 65.2318C24.7283 65.5754 24.9675 65.8809 25.26 66.13C25.6946 66.4982 26.2283 66.7297 26.7941 66.7955C27.3598 66.8613 27.9324 66.7585 28.4399 66.4999C28.9474 66.2414 29.3672 65.8386 29.6466 65.3422C29.9259 64.8458 30.0524 64.278 30.01 63.71C29.26 53.9 29.11 41.34 34.65 31.19C36.14 28.46 39.38 23.7 44.28 22.57C45.3527 22.354 46.4575 22.3533 47.5304 22.5679C48.6034 22.7825 49.623 23.2081 50.53 23.82C51.1344 24.2032 51.6527 24.7077 52.0521 25.3015C52.4514 25.8954 52.7231 26.5657 52.85 27.27C52.9175 28.2456 52.7914 29.225 52.4791 30.1517C52.1667 31.0784 51.6743 31.9343 51.03 32.67C49.4041 34.5305 47.5455 36.174 45.5 37.56C44.91 37.973 44.4955 38.5914 44.3376 39.2941C44.1797 39.9968 44.2899 40.7331 44.6465 41.3587C45.0032 41.9844 45.5806 42.4544 46.2656 42.6766C46.9507 42.8988 47.694 42.8572 48.35 42.56C52.6112 40.7297 57.3492 40.3229 61.86 41.4C63.9252 41.795 65.8339 42.7737 67.36 44.22C54.98 46 46.26 50 40.72 56.39C38.1921 59.1059 36.5525 62.5281 36.02 66.2C35.7883 67.9999 35.9915 69.8292 36.6127 71.5344C37.2338 73.2395 38.2548 74.7709 39.59 76C41.1248 77.3664 42.9569 78.3562 44.941 78.8908C46.9251 79.4255 49.0065 79.4903 51.02 79.08C60.95 77.18 68.96 68.33 72.49 60.41C74.0234 56.8866 74.8067 53.0826 74.79 49.24C80.09 48.91 87.04 49.14 89.64 53.87C90.2527 55.1759 90.4816 56.629 90.3 58.06C89.59 68.9 80.49 79.27 71.78 84.73C62.9054 90.3631 52.2905 92.5905 41.9 91C41.2333 90.88 40.5667 90.75 39.9 90.61C32.4437 89.0038 25.558 85.4179 19.9673 80.2294C14.3766 75.041 10.2874 68.4417 8.13005 61.1258C5.97265 53.8099 5.82672 46.0478 7.70761 38.656C9.5885 31.2642 13.4267 24.5159 18.8184 19.1209C24.2102 13.726 30.9562 9.88379 38.3469 7.99851C45.7376 6.11322 53.4998 6.25453 60.8169 8.40758C68.1341 10.5606 74.7358 14.6458 79.9276 20.2335C85.1194 25.8211 88.7094 32.7046 90.32 40.16C90.4831 40.9092 90.9372 41.563 91.5823 41.9774C92.2274 42.3919 93.0108 42.5331 93.76 42.37C94.5093 42.2069 95.163 41.7528 95.5775 41.1077C95.9919 40.4626 96.1331 39.6792 95.97 38.93C94.1384 30.4603 90.0582 22.6407 84.1587 16.2937C78.2591 9.94657 70.7582 5.30654 62.4448 2.86158C54.1314 0.416612 45.3128 0.257071 36.9164 2.39973C28.52 4.54239 20.8562 8.90807 14.7309 15.0376C8.60567 21.1672 4.24534 28.834 2.10854 37.2319C-0.0282619 45.6298 0.137435 54.4483 2.5882 62.76C5.03897 71.0717 9.68423 78.5693 16.0354 84.4644C22.3866 90.3596 30.2091 94.4343 38.68 96.26C39.44 96.42 40.2 96.57 40.96 96.69C43.4415 97.1074 45.9537 97.3147 48.47 97.31C57.8075 97.2681 66.9477 94.6185 74.86 89.66C84.08 83.86 95.17 72.22 96.07 58.47C96.3408 55.9356 95.8646 53.3773 94.7 51.11ZM69.01 49.83C68.9688 52.6709 68.3743 55.4765 67.26 58.09C64.43 64.43 57.81 71.93 49.98 73.44C48.8537 73.6839 47.6861 73.6618 46.5699 73.3753C45.4537 73.0889 44.4197 72.5461 43.55 71.79C42.869 71.1652 42.353 70.3819 42.0477 69.5096C41.7424 68.6373 41.6573 67.7031 41.8 66.79C42.2188 64.2819 43.3826 61.9578 45.14 60.12C49.8 54.68 57.63 51.29 69.01 49.83Z" fill="#005DE5" fill-opacity="0.05"/>
</svg>
